<?xml version="1.0" encoding="utf-8"?>
<!-- Generator: Adobe Illustrator 19.2.1, SVG Export Plug-In . SVG Version: 6.00 Build 0)  -->
<svg version="1.1" id="Layer_1" xmlns="http://www.w3.org/2000/svg" xmlns:xlink="http://www.w3.org/1999/xlink" x="0px" y="0px"
	 viewBox="0 0 310 80" style="enable-background:new 0 0 310 80;" xml:space="preserve">
<style type="text/css">
	.st0{fill:#FFFFFF;}
	.st1{fill:#59B35E;}
</style>
<g>
	<g>
		<g>
			<path class="st0" d="M101.2,69.8H77.3V15.3h21.2c3.7,0,6.9,0.4,9.6,1.3c2.7,0.9,4.7,2.1,6,3.6c2.4,2.8,3.7,6,3.7,9.5
				c0,4.3-1.4,7.4-4.1,9.5c-0.9,0.7-1.6,1.2-2,1.4c-0.4,0.2-1,0.5-2,0.9c3.4,0.7,6.1,2.3,8.1,4.6c2,2.3,3,5.2,3,8.6
				c0,3.8-1.3,7.2-3.9,10.1C113.9,68.1,108.6,69.8,101.2,69.8z M89.5,37.3h5.8c3.4,0,5.9-0.4,7.5-1.1c1.6-0.7,2.5-2.3,2.5-4.7
				s-0.8-4-2.3-4.8c-1.5-0.8-4.1-1.2-7.6-1.2h-5.9V37.3z M89.5,59.5h8.3c3.5,0,6.1-0.4,7.8-1.3c1.7-0.9,2.6-2.5,2.6-5.1
				c0-2.5-0.9-4.2-2.8-5c-1.8-0.8-4.8-1.2-8.9-1.2h-7.2V59.5z"/>
			<path class="st0" d="M130.8,22.5c-1.3-1.3-2-3-2-4.9c0-1.9,0.7-3.5,2-4.9c1.3-1.3,3-2,4.9-2c1.9,0,3.5,0.7,4.9,2
				c1.3,1.3,2,3,2,4.9c0,1.9-0.7,3.5-2,4.9c-1.3,1.3-3,2-4.9,2C133.8,24.5,132.2,23.8,130.8,22.5z"/>
			<rect x="129.9" y="27.8" class="st0" width="11.7" height="42"/>
			<path class="st0" d="M153.8,15.3H166v22.4l20.6-22.4h15.1l-21.7,24.1c1.9,2.6,5.3,7.4,10.4,14.5c5,7.1,8.8,12.4,11.3,15.9h-14.2
				l-16-21.5l-5.5,6.1v15.4h-12.2V15.3z"/>
			<path class="st0" d="M248.5,15.3v10.8h-27.1v11.2h24.4v10.4h-24.4V59h28v10.8h-40.2V15.3H248.5z"/>
			<path class="st0" d="M272.9,26.1c-1.2,1-1.8,2.2-1.8,3.8c0,1.6,0.7,2.8,2.1,3.8c1.4,0.9,4.7,2,9.9,3.3c5.2,1.3,9.2,3.2,12.1,5.7
				c2.9,2.5,4.3,6.3,4.3,11.2c0,4.9-1.8,8.9-5.5,11.9s-8.5,4.6-14.5,4.6c-8.6,0-16.4-3.2-23.3-9.6l7.3-8.9
				c5.9,5.1,11.3,7.7,16.3,7.7c2.2,0,4-0.5,5.3-1.4c1.3-1,1.9-2.3,1.9-3.9c0-1.6-0.7-2.9-2-3.9c-1.4-1-4-1.9-8-2.9
				c-6.3-1.5-11-3.5-13.9-5.9c-2.9-2.4-4.4-6.2-4.4-11.4c0-5.2,1.9-9.2,5.6-12c3.7-2.8,8.4-4.2,13.9-4.2c3.6,0,7.3,0.6,10.9,1.9
				c3.6,1.2,6.8,3,9.5,5.3l-6.2,8.9c-4.7-3.6-9.6-5.4-14.7-5.4C275.7,24.7,274.1,25.2,272.9,26.1z"/>
		</g>
		<path class="st1" d="M58.6,69.8H23c-6.6,0-12-5.4-12-12V22.2c0-6.6,5.4-12,12-12h35.6c6.6,0,12,5.4,12,12v35.6
			C70.6,64.4,65.2,69.8,58.6,69.8z"/>
	</g>
	<g>
		<path class="st0" d="M47.1,29.3c1.6,0,2.8-1.3,2.8-2.8s-1.3-2.8-2.8-2.8c-1.6,0-2.8,1.3-2.8,2.8S45.5,29.3,47.1,29.3z M51.8,40.6
			c-4.3,0-7.8,3.5-7.8,7.8s3.5,7.8,7.8,7.8s7.8-3.5,7.8-7.8S56.1,40.6,51.8,40.6z M51.8,53.9c-3,0-5.5-2.5-5.5-5.5
			c0-3,2.5-5.5,5.5-5.5c3,0,5.5,2.5,5.5,5.5C57.2,51.5,54.8,53.9,51.8,53.9z M45.2,37.5h6.6v-2.8h-5l-3-5.1
			c-0.5-0.8-1.3-1.3-2.3-1.3c-0.7,0-1.4,0.3-1.9,0.8l-5.8,5.8C33.3,35.3,33,36,33,36.7c0,1,0.5,1.8,1.3,2.3l5.3,3.2V50h2.8V39.9
			l-3.5-2.6l3.6-3.7L45.2,37.5z M29.8,40.6c-4.3,0-7.8,3.5-7.8,7.8s3.5,7.8,7.8,7.8s7.8-3.5,7.8-7.8S34.1,40.6,29.8,40.6z
			 M29.8,53.9c-3,0-5.5-2.5-5.5-5.5c0-3,2.5-5.5,5.5-5.5s5.5,2.5,5.5,5.5C35.3,51.5,32.8,53.9,29.8,53.9z"/>
	</g>
</g>
</svg>
